<svg width="200" height="205" viewBox="0 0 200 205" fill="none" xmlns="http://www.w3.org/2000/svg">
<path d="M181.915 4.08148H156.856C149.124 4.08148 142.855 10.3496 142.855 18.0823V43.1415C142.855 50.8741 149.124 57.1427 156.856 57.1427H181.915C189.648 57.1427 195.917 50.8741 195.917 43.1415V18.0823C195.917 10.3496 189.648 4.08148 181.915 4.08148Z" fill="url(#paint0_linear_258_1302)"/>
<path d="M83.7799 58.6362H105.785C114.891 59.1537 123.553 62.7411 130.358 68.8137L131.183 69.7309C137.287 76.5158 140.879 85.1892 141.36 94.3035V116.217C141.36 120.035 142.877 123.696 145.577 126.396C148.276 129.095 151.938 130.612 155.756 130.612H181.52C185.338 130.612 188.999 129.095 191.699 126.396C194.399 123.696 195.915 120.035 195.915 116.217V90.4525C195.915 86.6345 194.399 82.9733 191.699 80.2737C188.999 77.5741 185.338 76.0574 181.52 76.0574H159.606C150.493 75.5762 141.819 71.9839 135.034 65.8798L134.117 65.0545C128.032 58.2574 124.443 49.5913 123.939 40.4819V18.4766C123.939 14.659 122.423 10.9974 119.724 8.29781C117.024 5.59822 113.362 4.08148 109.544 4.08148H83.7799C79.9619 4.08148 76.3007 5.59822 73.6011 8.29781C70.9015 10.9974 69.3848 14.659 69.3848 18.4766V44.2415C69.3848 48.059 70.9015 51.7203 73.6011 54.4199C76.3007 57.1194 79.9619 58.6362 83.7799 58.6362Z" fill="url(#paint1_linear_258_1302)"/>
<path d="M185.649 148.845H163.851C154.777 148.256 146.18 144.491 139.509 138.186L137.057 135.684C131.011 128.825 127.452 120.058 126.976 110.845V88.6021C126.951 84.7506 125.442 81.0637 122.773 78.34C120.103 75.6163 116.49 74.0755 112.716 74.0514H90.9172C81.918 73.6649 73.3233 70.1306 66.5759 64.042L64.1237 61.5396C58.0767 54.6812 54.5184 45.9139 54.0416 36.7012V14.551C54.0416 10.6918 52.5392 6.99062 49.8653 4.26164C47.191 1.53307 43.5641 0 39.782 0H14.2596C10.478 0 6.85061 1.53307 4.17674 4.26164C1.50245 6.99062 0 10.6918 0 14.551V40.5939C0 44.4531 1.50245 48.1543 4.17674 50.8829C6.85061 53.6118 10.478 55.1449 14.2596 55.1449H35.9673C45.1335 55.5727 53.8682 59.2425 60.6722 65.5249L63.1245 68.0273C69.1523 74.898 72.7078 83.658 73.2061 92.8653V115.109C73.2298 118.96 74.74 122.647 77.409 125.371C80.078 128.094 83.6914 129.635 87.4657 129.66H109.264C118.193 130.23 126.672 133.854 133.333 139.947L135.786 142.449C141.813 149.32 145.369 158.08 145.867 167.288V189.531C145.891 193.383 147.401 197.069 150.07 199.793C152.739 202.517 156.353 204.057 160.127 204.082H185.74C189.515 204.057 193.128 202.517 195.797 199.793C198.466 197.069 199.976 193.383 200 189.531V163.395C199.976 159.528 198.453 155.827 195.765 153.1C193.076 150.374 189.44 148.844 185.649 148.845Z" fill="url(#paint2_linear_258_1302)"/>
<path d="M42.0649 146.939H15.078C6.75061 146.939 0 153.207 0 160.94V185.999C0 193.732 6.75061 200 15.078 200H42.0649C50.3922 200 57.1429 193.732 57.1429 185.999V160.94C57.1429 153.207 50.3922 146.939 42.0649 146.939Z" fill="url(#paint3_linear_258_1302)"/>
<path d="M112.136 145.445H90.2216C81.1077 144.964 72.4343 141.372 65.649 135.268L64.7322 134.443C58.6086 127.597 55.0167 118.86 54.5547 109.687V87.6813C54.5094 83.9736 53.0351 80.4262 50.4388 77.7785C47.8424 75.1311 44.3245 73.5875 40.6179 73.4695H14.3951C10.5771 73.4695 6.91591 74.9863 4.21631 77.6858C1.51672 80.3854 0 84.0466 0 87.8646V113.629C0 117.447 1.51672 121.108 4.21631 123.808C6.91591 126.508 10.5771 128.024 14.3951 128.024H36.4004C45.5061 128.542 54.1681 132.129 60.973 138.202L61.7984 139.118C67.9024 145.904 71.4947 154.577 71.9755 163.691V185.605C71.9755 187.503 72.351 189.382 73.08 191.134C73.8094 192.887 74.878 194.478 76.2245 195.816C77.5706 197.154 79.1686 198.212 80.9257 198.93C82.6828 199.648 84.5645 200.012 86.4624 200H112.136C115.953 200 119.615 198.483 122.314 195.784C125.014 193.084 126.531 189.423 126.531 185.605V159.84C126.531 156.023 125.014 152.361 122.314 149.661C119.615 146.962 115.953 145.445 112.136 145.445Z" fill="url(#paint4_linear_258_1302)"/>
<defs>
<linearGradient id="paint0_linear_258_1302" x1="142.855" y1="30.6121" x2="195.917" y2="30.6121" gradientUnits="userSpaceOnUse">
<stop stop-color="#FF3E3D"/>
<stop offset="1" stop-color="#466DFD"/>
</linearGradient>
<linearGradient id="paint1_linear_258_1302" x1="69.3848" y1="67.3468" x2="195.915" y2="67.3468" gradientUnits="userSpaceOnUse">
<stop stop-color="#FF3E3D"/>
<stop offset="1" stop-color="#466DFD"/>
</linearGradient>
<linearGradient id="paint2_linear_258_1302" x1="0" y1="102.041" x2="200" y2="102.041" gradientUnits="userSpaceOnUse">
<stop stop-color="#FF3E3D"/>
<stop offset="1" stop-color="#466DFD"/>
</linearGradient>
<linearGradient id="paint3_linear_258_1302" x1="0" y1="173.469" x2="57.1429" y2="173.469" gradientUnits="userSpaceOnUse">
<stop stop-color="#FF3E3D"/>
<stop offset="1" stop-color="#466DFD"/>
</linearGradient>
<linearGradient id="paint4_linear_258_1302" x1="0" y1="136.735" x2="126.531" y2="136.735" gradientUnits="userSpaceOnUse">
<stop stop-color="#FF3E3D"/>
<stop offset="1" stop-color="#466DFD"/>
</linearGradient>
</defs>
</svg>
